<svg xmlns="http://www.w3.org/2000/svg" xmlns:xlink="http://www.w3.org/1999/xlink" contentStyleType="text/css" data-diagram-type="SEQUENCE" height="703px" preserveAspectRatio="none" style="width:781px;height:703px;background:#FFFFFF;" version="1.1" viewBox="0 0 781 703" width="781px" zoomAndPan="magnify"><defs/><g><g><title>Media Ingestor</title><rect fill="#FFFFFF" height="58.2656" style="stroke:#181818;stroke-width:1;" width="10" x="191.498" y="110.5625"/></g><g><title>Media Ingestor</title><rect fill="#FFFFFF" height="87.3984" style="stroke:#181818;stroke-width:1;" width="10" x="191.498" y="222.0938"/></g><g><title>Pipeline Executor</title><rect fill="#FFFFFF" height="129.5313" style="stroke:#181818;stroke-width:1;" width="10" x="446.9292" y="345.625"/></g><g><title>Media Ingestor</title><rect fill="#FFFFFF" height="145.6641" style="stroke:#181818;stroke-width:1;" width="10" x="705.4531" y="504.2891"/></g><rect fill="transparent" height="133.6641" style="stroke:#000000;stroke-width:1.5;" width="367.584" x="10" y="183.8281"/><g><title>User</title><rect fill="transparent" height="631.6563" width="8" x="38.9551" y="36.2969"/><line style="stroke:#181818;stroke-width:0.5;stroke-dasharray:5.0,5.0;" x1="42" x2="42" y1="36.2969" y2="667.9531"/></g><g><title>Media Ingestor</title><rect fill="transparent" height="631.6563" width="8" x="192.498" y="36.2969"/><line style="stroke:#181818;stroke-width:0.5;stroke-dasharray:5.0,5.0;" x1="196.4458" x2="196.4458" y1="36.2969" y2="667.9531"/></g><g><title>Job Queue</title><rect fill="transparent" height="631.6563" width="8" x="320.5723" y="36.2969"/><line style="stroke:#181818;stroke-width:0.5;stroke-dasharray:5.0,5.0;" x1="324.5605" x2="324.5605" y1="36.2969" y2="667.9531"/></g><g><title>Pipeline Executor</title><rect fill="transparent" height="631.6563" width="8" x="447.9292" y="36.2969"/><line style="stroke:#181818;stroke-width:0.5;stroke-dasharray:5.0,5.0;" x1="451.0928" x2="451.0928" y1="36.2969" y2="667.9531"/></g><g><title>Storage</title><rect fill="transparent" height="631.6563" width="8" x="603.0127" y="36.2969"/><line style="stroke:#181818;stroke-width:0.5;stroke-dasharray:5.0,5.0;" x1="606.6245" x2="606.6245" y1="36.2969" y2="667.9531"/></g><g><title>Media Ingestor</title><rect fill="transparent" height="631.6563" width="8" x="706.4531" y="36.2969"/><line style="stroke:#181818;stroke-width:0.5;stroke-dasharray:5.0,5.0;" x1="710.4009" x2="710.4009" y1="36.2969" y2="667.9531"/></g><rect fill="#E2E2F0" height="30.2969" rx="2.5" ry="2.5" style="stroke:#181818;stroke-width:0.5;" width="45.9102" x="20" y="5"/><text fill="#000000" font-family="sans-serif" font-size="14" lengthAdjust="spacing" textLength="31.9102" x="27" y="24.9951">User</text><rect fill="#E2E2F0" height="30.2969" rx="2.5" ry="2.5" style="stroke:#181818;stroke-width:0.5;" width="45.9102" x="20" y="666.9531"/><text fill="#000000" font-family="sans-serif" font-size="14" lengthAdjust="spacing" textLength="31.9102" x="27" y="686.9482">User</text><rect fill="#E2E2F0" height="30.2969" rx="2.5" ry="2.5" style="stroke:#181818;stroke-width:0.5;" width="118.1045" x="137.4458" y="5"/><text fill="#000000" font-family="sans-serif" font-size="14" lengthAdjust="spacing" textLength="104.1045" x="144.4458" y="24.9951">Media Ingestor</text><rect fill="#E2E2F0" height="30.2969" rx="2.5" ry="2.5" style="stroke:#181818;stroke-width:0.5;" width="118.1045" x="137.4458" y="666.9531"/><text fill="#000000" font-family="sans-serif" font-size="14" lengthAdjust="spacing" textLength="104.1045" x="144.4458" y="686.9482">Media Ingestor</text><rect fill="#E2E2F0" height="30.2969" rx="2.5" ry="2.5" style="stroke:#181818;stroke-width:0.5;" width="86.0234" x="281.5605" y="5"/><text fill="#000000" font-family="sans-serif" font-size="14" lengthAdjust="spacing" textLength="72.0234" x="288.5605" y="24.9951">Job Queue</text><rect fill="#E2E2F0" height="30.2969" rx="2.5" ry="2.5" style="stroke:#181818;stroke-width:0.5;" width="86.0234" x="281.5605" y="666.9531"/><text fill="#000000" font-family="sans-serif" font-size="14" lengthAdjust="spacing" textLength="72.0234" x="288.5605" y="686.9482">Job Queue</text><rect fill="#E2E2F0" height="30.2969" rx="2.5" ry="2.5" style="stroke:#181818;stroke-width:0.5;" width="135.6729" x="384.0928" y="5"/><text fill="#000000" font-family="sans-serif" font-size="14" lengthAdjust="spacing" textLength="121.6729" x="391.0928" y="24.9951">Pipeline Executor</text><rect fill="#E2E2F0" height="30.2969" rx="2.5" ry="2.5" style="stroke:#181818;stroke-width:0.5;" width="135.6729" x="384.0928" y="666.9531"/><text fill="#000000" font-family="sans-serif" font-size="14" lengthAdjust="spacing" textLength="121.6729" x="391.0928" y="686.9482">Pipeline Executor</text><rect fill="#E2E2F0" height="30.2969" rx="2.5" ry="2.5" style="stroke:#181818;stroke-width:0.5;" width="68.7764" x="572.6245" y="5"/><text fill="#000000" font-family="sans-serif" font-size="14" lengthAdjust="spacing" textLength="54.7764" x="579.6245" y="24.9951">Storage</text><rect fill="#E2E2F0" height="30.2969" rx="2.5" ry="2.5" style="stroke:#181818;stroke-width:0.5;" width="68.7764" x="572.6245" y="666.9531"/><text fill="#000000" font-family="sans-serif" font-size="14" lengthAdjust="spacing" textLength="54.7764" x="579.6245" y="686.9482">Storage</text><rect fill="#E2E2F0" height="30.2969" rx="2.5" ry="2.5" style="stroke:#181818;stroke-width:0.5;" width="118.1045" x="651.4009" y="5"/><text fill="#000000" font-family="sans-serif" font-size="14" lengthAdjust="spacing" textLength="104.1045" x="658.4009" y="24.9951">Media Ingestor</text><rect fill="#E2E2F0" height="30.2969" rx="2.5" ry="2.5" style="stroke:#181818;stroke-width:0.5;" width="118.1045" x="651.4009" y="666.9531"/><text fill="#000000" font-family="sans-serif" font-size="14" lengthAdjust="spacing" textLength="104.1045" x="658.4009" y="686.9482">Media Ingestor</text><g><title>Media Ingestor</title><rect fill="#FFFFFF" height="58.2656" style="stroke:#181818;stroke-width:1;" width="10" x="191.498" y="110.5625"/></g><g><title>Media Ingestor</title><rect fill="#FFFFFF" height="87.3984" style="stroke:#181818;stroke-width:1;" width="10" x="191.498" y="222.0938"/></g><g><title>Pipeline Executor</title><rect fill="#FFFFFF" height="129.5313" style="stroke:#181818;stroke-width:1;" width="10" x="446.9292" y="345.625"/></g><g><title>Media Ingestor</title><rect fill="#FFFFFF" height="145.6641" style="stroke:#181818;stroke-width:1;" width="10" x="705.4531" y="504.2891"/></g><rect fill="#EEEEEE" height="3" style="stroke:#EEEEEE;stroke-width:1;" width="774.5054" x="0" y="66.8633"/><line style="stroke:#000000;stroke-width:1;" x1="0" x2="774.5054" y1="66.8633" y2="66.8633"/><line style="stroke:#000000;stroke-width:1;" x1="0" x2="774.5054" y1="69.8633" y2="69.8633"/><rect fill="#EEEEEE" height="23.1328" style="stroke:#000000;stroke-width:2;" width="154.5308" x="309.9873" y="56.2969"/><text fill="#000000" font-family="sans-serif" font-size="13" font-weight="bold" lengthAdjust="spacing" textLength="136.0049" x="315.9873" y="72.3638">Batch Upload Path</text><polygon fill="#181818" points="179.498,106.5625,189.498,110.5625,179.498,114.5625,183.498,110.5625" style="stroke:#181818;stroke-width:1;"/><line style="stroke:#181818;stroke-width:1;" x1="42.9551" x2="185.498" y1="110.5625" y2="110.5625"/><text fill="#000000" font-family="sans-serif" font-size="13" lengthAdjust="spacing" textLength="69.4814" x="49.9551" y="105.4966">Upload file</text><polygon fill="#181818" points="312.5723,135.6953,322.5723,139.6953,312.5723,143.6953,316.5723,139.6953" style="stroke:#181818;stroke-width:1;"/><line style="stroke:#181818;stroke-width:1;" x1="201.498" x2="318.5723" y1="139.6953" y2="139.6953"/><text fill="#000000" font-family="sans-serif" font-size="13" lengthAdjust="spacing" textLength="80.9136" x="208.498" y="134.6294">enqueue job</text><polygon fill="#181818" points="53.9551,164.8281,43.9551,168.8281,53.9551,172.8281,49.9551,168.8281" style="stroke:#181818;stroke-width:1;"/><line style="stroke:#181818;stroke-width:1;" x1="47.9551" x2="195.498" y1="168.8281" y2="168.8281"/><text fill="#000000" font-family="sans-serif" font-size="13" lengthAdjust="spacing" textLength="82.1895" x="59.9551" y="163.7622">return job ID</text><path d="M10,183.8281 L86.624,183.8281 L86.624,190.9609 L76.624,200.9609 L10,200.9609 L10,183.8281 " fill="#EEEEEE" style="stroke:#000000;stroke-width:1.5;"/><rect fill="transparent" height="133.6641" style="stroke:#000000;stroke-width:1.5;" width="367.584" x="10" y="183.8281"/><text fill="#000000" font-family="sans-serif" font-size="13" font-weight="bold" lengthAdjust="spacing" textLength="31.624" x="25" y="196.895">loop</text><text fill="#000000" font-family="sans-serif" font-size="11" font-weight="bold" lengthAdjust="spacing" textLength="127.7031" x="101.624" y="196.0386">[Poll for completion]</text><polygon fill="#181818" points="179.498,218.0938,189.498,222.0938,179.498,226.0938,183.498,222.0938" style="stroke:#181818;stroke-width:1;"/><line style="stroke:#181818;stroke-width:1;" x1="42.9551" x2="185.498" y1="222.0938" y2="222.0938"/><text fill="#000000" font-family="sans-serif" font-size="13" lengthAdjust="spacing" textLength="129.543" x="49.9551" y="217.0278">query status(job ID)</text><polygon fill="#181818" points="312.5723,247.2266,322.5723,251.2266,312.5723,255.2266,316.5723,251.2266" style="stroke:#181818;stroke-width:1;"/><line style="stroke:#181818;stroke-width:1;" x1="201.498" x2="318.5723" y1="251.2266" y2="251.2266"/><text fill="#000000" font-family="sans-serif" font-size="13" lengthAdjust="spacing" textLength="99.0742" x="208.498" y="246.1606">check job state</text><polygon fill="#181818" points="212.498,276.3594,202.498,280.3594,212.498,284.3594,208.498,280.3594" style="stroke:#181818;stroke-width:1;"/><line style="stroke:#181818;stroke-width:1;stroke-dasharray:2.0,2.0;" x1="206.498" x2="323.5723" y1="280.3594" y2="280.3594"/><text fill="#000000" font-family="sans-serif" font-size="13" lengthAdjust="spacing" textLength="52.8442" x="218.498" y="275.2935">pending</text><polygon fill="#181818" points="53.9551,305.4922,43.9551,309.4922,53.9551,313.4922,49.9551,309.4922" style="stroke:#181818;stroke-width:1;"/><line style="stroke:#181818;stroke-width:1;stroke-dasharray:2.0,2.0;" x1="47.9551" x2="195.498" y1="309.4922" y2="309.4922"/><text fill="#000000" font-family="sans-serif" font-size="13" lengthAdjust="spacing" textLength="52.8442" x="59.9551" y="304.4263">pending</text><polygon fill="#181818" points="434.9292,341.625,444.9292,345.625,434.9292,349.625,438.9292,345.625" style="stroke:#181818;stroke-width:1;"/><line style="stroke:#181818;stroke-width:1;" x1="324.5723" x2="440.9292" y1="345.625" y2="345.625"/><text fill="#000000" font-family="sans-serif" font-size="13" lengthAdjust="spacing" textLength="80.9263" x="331.5723" y="340.5591">dequeue job</text><line style="stroke:#181818;stroke-width:1;" x1="456.9292" x2="498.9292" y1="374.7578" y2="374.7578"/><line style="stroke:#181818;stroke-width:1;" x1="498.9292" x2="498.9292" y1="374.7578" y2="387.7578"/><line style="stroke:#181818;stroke-width:1;" x1="457.9292" x2="498.9292" y1="387.7578" y2="387.7578"/><polygon fill="#181818" points="467.9292,383.7578,457.9292,387.7578,467.9292,391.7578,463.9292,387.7578" style="stroke:#181818;stroke-width:1;"/><text fill="#000000" font-family="sans-serif" font-size="13" lengthAdjust="spacing" textLength="104.8696" x="463.9292" y="369.6919">apply CV stages</text><polygon fill="#181818" points="595.0127,412.8906,605.0127,416.8906,595.0127,420.8906,599.0127,416.8906" style="stroke:#181818;stroke-width:1;"/><line style="stroke:#181818;stroke-width:1;" x1="456.9292" x2="601.0127" y1="416.8906" y2="416.8906"/><text fill="#000000" font-family="sans-serif" font-size="13" lengthAdjust="spacing" textLength="126.0835" x="463.9292" y="411.8247">save annotated ZIP</text><polygon fill="#181818" points="467.9292,442.0234,457.9292,446.0234,467.9292,450.0234,463.9292,446.0234" style="stroke:#181818;stroke-width:1;"/><line style="stroke:#181818;stroke-width:1;stroke-dasharray:2.0,2.0;" x1="461.9292" x2="606.0127" y1="446.0234" y2="446.0234"/><text fill="#000000" font-family="sans-serif" font-size="13" lengthAdjust="spacing" textLength="55.5737" x="473.9292" y="440.9575">write OK</text><polygon fill="#181818" points="335.5723,471.1563,325.5723,475.1563,335.5723,479.1563,331.5723,475.1563" style="stroke:#181818;stroke-width:1;"/><line style="stroke:#181818;stroke-width:1;" x1="329.5723" x2="450.9292" y1="475.1563" y2="475.1563"/><text fill="#000000" font-family="sans-serif" font-size="13" lengthAdjust="spacing" textLength="98.3569" x="341.5723" y="470.0903">mark complete</text><polygon fill="#181818" points="693.4531,500.2891,703.4531,504.2891,693.4531,508.2891,697.4531,504.2891" style="stroke:#181818;stroke-width:1;"/><line style="stroke:#181818;stroke-width:1;" x1="42.9551" x2="699.4531" y1="504.2891" y2="504.2891"/><text fill="#000000" font-family="sans-serif" font-size="13" lengthAdjust="spacing" textLength="129.543" x="49.9551" y="499.2231">query status(job ID)</text><polygon fill="#181818" points="335.5723,529.4219,325.5723,533.4219,335.5723,537.4219,331.5723,533.4219" style="stroke:#181818;stroke-width:1;"/><line style="stroke:#181818;stroke-width:1;" x1="329.5723" x2="704.4531" y1="533.4219" y2="533.4219"/><text fill="#000000" font-family="sans-serif" font-size="13" lengthAdjust="spacing" textLength="99.0742" x="341.5723" y="528.356">check job state</text><polygon fill="#181818" points="693.4531,558.5547,703.4531,562.5547,693.4531,566.5547,697.4531,562.5547" style="stroke:#181818;stroke-width:1;"/><line style="stroke:#181818;stroke-width:1;stroke-dasharray:2.0,2.0;" x1="324.5723" x2="699.4531" y1="562.5547" y2="562.5547"/><text fill="#000000" font-family="sans-serif" font-size="13" lengthAdjust="spacing" textLength="60.7217" x="331.5723" y="557.4888">complete</text><polygon fill="#181818" points="618.0127,587.6875,608.0127,591.6875,618.0127,595.6875,614.0127,591.6875" style="stroke:#181818;stroke-width:1;"/><line style="stroke:#181818;stroke-width:1;" x1="612.0127" x2="704.4531" y1="591.6875" y2="591.6875"/><text fill="#000000" font-family="sans-serif" font-size="13" lengthAdjust="spacing" textLength="74.2549" x="624.0127" y="586.6216">fetch result</text><polygon fill="#181818" points="693.4531,616.8203,703.4531,620.8203,693.4531,624.8203,697.4531,620.8203" style="stroke:#181818;stroke-width:1;"/><line style="stroke:#181818;stroke-width:1;stroke-dasharray:2.0,2.0;" x1="607.0127" x2="699.4531" y1="620.8203" y2="620.8203"/><text fill="#000000" font-family="sans-serif" font-size="13" lengthAdjust="spacing" textLength="64.9746" x="614.0127" y="615.7544">return ZIP</text><polygon fill="#181818" points="53.9551,645.9531,43.9551,649.9531,53.9551,653.9531,49.9551,649.9531" style="stroke:#181818;stroke-width:1;"/><line style="stroke:#181818;stroke-width:1;" x1="47.9551" x2="709.4531" y1="649.9531" y2="649.9531"/><text fill="#000000" font-family="sans-serif" font-size="13" lengthAdjust="spacing" textLength="110.4175" x="59.9551" y="644.8872">deliver ZIP result</text><!--SRC=[XLDDJyCm3BtdLrYSu309Tfmq3dmS2feOGd3WPbfl2ykIaAO3_ZrEQDQMjgE7gdNUU_QpdN8hjKM7E-2tbxcqgFq2tLfgk3WNeXM5vv9S9t2oe48YP7fDfJVk1B2464gHBlhElC5ZHHL58F_5dovcAIqfgGbkloYlacYAfc27yyG1NDF_bMLJ8UPpk4AVR-3PAeC5BD5lO3uN8fY3oMMtVfWbt4eg4fXxkKTFVqoABeT5aZVca_w8N-_chO-BIMVWo5TE1mXaDwAWiJpA60jBenIic9-RdLNafT42-1apmEdTDvGUVLMU_gOuYuIHBE7ecA5yG_asrXeqAU8FnvE10YpfGkhra73JWZPej06C4QB9TTdR2nOggEdtGQQtFptYi1XQgxxX-YLOvHe6QVNwCRh4FG5gRK9V2dZDbY8TJeRrFvtawXxk1uLRFT-XswPvKtj1UiQQFSwcOyDlkiit8k2E3xWxt2XxAALcDprOKRXSZifA-OxxNsAzwQ4rDRMUVy4szlp59udTNeDi-WC0]--></g></svg>