<svg xmlns="http://www.w3.org/2000/svg" xmlns:xlink="http://www.w3.org/1999/xlink" contentStyleType="text/css" data-diagram-type="SEQUENCE" height="575px" preserveAspectRatio="none" style="width:1069px;height:575px;background:#FFFFFF;" version="1.1" viewBox="0 0 1069 575" width="1069px" zoomAndPan="magnify"><defs/><g><g><title>Pipeline Executor</title><rect fill="#FFFFFF" height="86.3984" style="stroke:#181818;stroke-width:1;" width="10" x="317.1128" y="139.6953"/></g><g><title>Event Notifier</title><rect fill="#FFFFFF" height="44.2656" style="stroke:#181818;stroke-width:1;" width="10" x="674.5952" y="279.3594"/></g><g><title>Event Notifier</title><rect fill="#FFFFFF" height="97.3984" style="stroke:#181818;stroke-width:1;" width="10" x="674.5952" y="367.5625"/></g><rect fill="transparent" height="223.8672" style="stroke:#000000;stroke-width:1.5;" width="506.2168" x="457.4932" y="241.0938"/><rect fill="transparent" height="46.2656" style="stroke:#000000;stroke-width:1.5;" width="339.1953" x="614.5146" y="411.6953"/><g><title>User</title><rect fill="transparent" height="503.9297" width="8" x="23.9551" y="36.2969"/><line style="stroke:#181818;stroke-width:0.5;stroke-dasharray:5.0,5.0;" x1="27" x2="27" y1="36.2969" y2="540.2266"/></g><g><title>Media Ingestor</title><rect fill="transparent" height="503.9297" width="8" x="181.2241" y="36.2969"/><line style="stroke:#181818;stroke-width:0.5;stroke-dasharray:5.0,5.0;" x1="185.1719" x2="185.1719" y1="36.2969" y2="540.2266"/></g><g><title>Pipeline Executor</title><rect fill="transparent" height="503.9297" width="8" x="318.1128" y="36.2969"/><line style="stroke:#181818;stroke-width:0.5;stroke-dasharray:5.0,5.0;" x1="321.2764" x2="321.2764" y1="36.2969" y2="540.2266"/></g><g><title>Local Queue</title><rect fill="transparent" height="503.9297" width="8" x="513.98" y="36.2969"/><line style="stroke:#181818;stroke-width:0.5;stroke-dasharray:5.0,5.0;" x1="517.4932" x2="517.4932" y1="36.2969" y2="540.2266"/></g><g><title>Event Notifier</title><rect fill="transparent" height="503.9297" width="8" x="675.5952" y="36.2969"/><line style="stroke:#181818;stroke-width:0.5;stroke-dasharray:5.0,5.0;" x1="679.5146" x2="679.5146" y1="36.2969" y2="540.2266"/></g><g><title>External Service</title><rect fill="transparent" height="503.9297" width="8" x="875.4487" y="36.2969"/><line style="stroke:#181818;stroke-width:0.5;stroke-dasharray:5.0,5.0;" x1="879.1875" x2="879.1875" y1="36.2969" y2="540.2266"/></g><g><title>Media Player</title><rect fill="transparent" height="503.9297" width="8" x="1001.7417" y="36.2969"/><line style="stroke:#181818;stroke-width:0.5;stroke-dasharray:5.0,5.0;" x1="1005.71" x2="1005.71" y1="36.2969" y2="540.2266"/></g><rect fill="#E2E2F0" height="30.2969" rx="2.5" ry="2.5" style="stroke:#181818;stroke-width:0.5;" width="45.9102" x="5" y="5"/><text fill="#000000" font-family="sans-serif" font-size="14" lengthAdjust="spacing" textLength="31.9102" x="12" y="24.9951">User</text><rect fill="#E2E2F0" height="30.2969" rx="2.5" ry="2.5" style="stroke:#181818;stroke-width:0.5;" width="45.9102" x="5" y="539.2266"/><text fill="#000000" font-family="sans-serif" font-size="14" lengthAdjust="spacing" textLength="31.9102" x="12" y="559.2217">User</text><rect fill="#E2E2F0" height="30.2969" rx="2.5" ry="2.5" style="stroke:#181818;stroke-width:0.5;" width="118.1045" x="126.1719" y="5"/><text fill="#000000" font-family="sans-serif" font-size="14" lengthAdjust="spacing" textLength="104.1045" x="133.1719" y="24.9951">Media Ingestor</text><rect fill="#E2E2F0" height="30.2969" rx="2.5" ry="2.5" style="stroke:#181818;stroke-width:0.5;" width="118.1045" x="126.1719" y="539.2266"/><text fill="#000000" font-family="sans-serif" font-size="14" lengthAdjust="spacing" textLength="104.1045" x="133.1719" y="559.2217">Media Ingestor</text><rect fill="#E2E2F0" height="30.2969" rx="2.5" ry="2.5" style="stroke:#181818;stroke-width:0.5;" width="135.6729" x="254.2764" y="5"/><text fill="#000000" font-family="sans-serif" font-size="14" lengthAdjust="spacing" textLength="121.6729" x="261.2764" y="24.9951">Pipeline Executor</text><rect fill="#E2E2F0" height="30.2969" rx="2.5" ry="2.5" style="stroke:#181818;stroke-width:0.5;" width="135.6729" x="254.2764" y="539.2266"/><text fill="#000000" font-family="sans-serif" font-size="14" lengthAdjust="spacing" textLength="121.6729" x="261.2764" y="559.2217">Pipeline Executor</text><rect fill="#E2E2F0" height="30.2969" rx="2.5" ry="2.5" style="stroke:#181818;stroke-width:0.5;" width="100.9736" x="467.4932" y="5"/><text fill="#000000" font-family="sans-serif" font-size="14" lengthAdjust="spacing" textLength="86.9736" x="474.4932" y="24.9951">Local Queue</text><rect fill="#E2E2F0" height="30.2969" rx="2.5" ry="2.5" style="stroke:#181818;stroke-width:0.5;" width="100.9736" x="467.4932" y="539.2266"/><text fill="#000000" font-family="sans-serif" font-size="14" lengthAdjust="spacing" textLength="86.9736" x="474.4932" y="559.2217">Local Queue</text><rect fill="#E2E2F0" height="30.2969" rx="2.5" ry="2.5" style="stroke:#181818;stroke-width:0.5;" width="110.1611" x="624.5146" y="5"/><text fill="#000000" font-family="sans-serif" font-size="14" lengthAdjust="spacing" textLength="96.1611" x="631.5146" y="24.9951">Event Notifier</text><rect fill="#E2E2F0" height="30.2969" rx="2.5" ry="2.5" style="stroke:#181818;stroke-width:0.5;" width="110.1611" x="624.5146" y="539.2266"/><text fill="#000000" font-family="sans-serif" font-size="14" lengthAdjust="spacing" textLength="96.1611" x="631.5146" y="559.2217">Event Notifier</text><rect fill="#E2E2F0" height="30.2969" rx="2.5" ry="2.5" style="stroke:#181818;stroke-width:0.5;" width="128.5225" x="815.1875" y="5"/><text fill="#000000" font-family="sans-serif" font-size="14" lengthAdjust="spacing" textLength="114.5225" x="822.1875" y="24.9951">External Service</text><rect fill="#E2E2F0" height="30.2969" rx="2.5" ry="2.5" style="stroke:#181818;stroke-width:0.5;" width="128.5225" x="815.1875" y="539.2266"/><text fill="#000000" font-family="sans-serif" font-size="14" lengthAdjust="spacing" textLength="114.5225" x="822.1875" y="559.2217">External Service</text><rect fill="#E2E2F0" height="30.2969" rx="2.5" ry="2.5" style="stroke:#181818;stroke-width:0.5;" width="104.0635" x="953.71" y="5"/><text fill="#000000" font-family="sans-serif" font-size="14" lengthAdjust="spacing" textLength="90.0635" x="960.71" y="24.9951">Media Player</text><rect fill="#E2E2F0" height="30.2969" rx="2.5" ry="2.5" style="stroke:#181818;stroke-width:0.5;" width="104.0635" x="953.71" y="539.2266"/><text fill="#000000" font-family="sans-serif" font-size="14" lengthAdjust="spacing" textLength="90.0635" x="960.71" y="559.2217">Media Player</text><g><title>Pipeline Executor</title><rect fill="#FFFFFF" height="86.3984" style="stroke:#181818;stroke-width:1;" width="10" x="317.1128" y="139.6953"/></g><g><title>Event Notifier</title><rect fill="#FFFFFF" height="44.2656" style="stroke:#181818;stroke-width:1;" width="10" x="674.5952" y="279.3594"/></g><g><title>Event Notifier</title><rect fill="#FFFFFF" height="97.3984" style="stroke:#181818;stroke-width:1;" width="10" x="674.5952" y="367.5625"/></g><rect fill="#EEEEEE" height="3" style="stroke:#EEEEEE;stroke-width:1;" width="1062.7734" x="0" y="66.8633"/><line style="stroke:#000000;stroke-width:1;" x1="0" x2="1062.7734" y1="66.8633" y2="66.8633"/><line style="stroke:#000000;stroke-width:1;" x1="0" x2="1062.7734" y1="69.8633" y2="69.8633"/><rect fill="#EEEEEE" height="23.1328" style="stroke:#000000;stroke-width:2;" width="129.1465" x="466.8135" y="56.2969"/><text fill="#000000" font-family="sans-serif" font-size="13" font-weight="bold" lengthAdjust="spacing" textLength="110.6206" x="472.8135" y="72.3638">Live RTSP Path</text><polygon fill="#181818" points="173.2241,106.5625,183.2241,110.5625,173.2241,114.5625,177.2241,110.5625" style="stroke:#181818;stroke-width:1;"/><line style="stroke:#181818;stroke-width:1;" x1="27.9551" x2="179.2241" y1="110.5625" y2="110.5625"/><text fill="#000000" font-family="sans-serif" font-size="13" lengthAdjust="spacing" textLength="133.269" x="34.9551" y="105.4966">Request RTSP frame</text><polygon fill="#181818" points="305.1128,135.6953,315.1128,139.6953,305.1128,143.6953,309.1128,139.6953" style="stroke:#181818;stroke-width:1;"/><line style="stroke:#181818;stroke-width:1;" x1="185.2241" x2="311.1128" y1="139.6953" y2="139.6953"/><text fill="#000000" font-family="sans-serif" font-size="13" lengthAdjust="spacing" textLength="38.5493" x="192.2241" y="134.6294">frame</text><line style="stroke:#181818;stroke-width:1;" x1="327.1128" x2="369.1128" y1="183.9609" y2="183.9609"/><line style="stroke:#181818;stroke-width:1;" x1="369.1128" x2="369.1128" y1="183.9609" y2="196.9609"/><line style="stroke:#181818;stroke-width:1;" x1="328.1128" x2="369.1128" y1="196.9609" y2="196.9609"/><polygon fill="#181818" points="338.1128,192.9609,328.1128,196.9609,338.1128,200.9609,334.1128,196.9609" style="stroke:#181818;stroke-width:1;"/><text fill="#000000" font-family="sans-serif" font-size="13" lengthAdjust="spacing" textLength="104.8696" x="334.1128" y="163.7622">apply CV stages</text><text fill="#000000" font-family="sans-serif" font-size="13" lengthAdjust="spacing" textLength="148.9478" x="334.1128" y="178.895">(decode, detect, track)</text><polygon fill="#181818" points="505.98,222.0938,515.98,226.0938,505.98,230.0938,509.98,226.0938" style="stroke:#181818;stroke-width:1;"/><line style="stroke:#181818;stroke-width:1;" x1="322.1128" x2="511.98" y1="226.0938" y2="226.0938"/><text fill="#000000" font-family="sans-serif" font-size="13" lengthAdjust="spacing" textLength="166.8672" x="329.1128" y="221.0278">enqueue detected events</text><path d="M457.4932,241.0938 L521.936,241.0938 L521.936,248.2266 L511.936,258.2266 L457.4932,258.2266 L457.4932,241.0938 " fill="#EEEEEE" style="stroke:#000000;stroke-width:1.5;"/><rect fill="transparent" height="223.8672" style="stroke:#000000;stroke-width:1.5;" width="506.2168" x="457.4932" y="241.0938"/><text fill="#000000" font-family="sans-serif" font-size="13" font-weight="bold" lengthAdjust="spacing" textLength="19.4429" x="472.4932" y="254.1606">alt</text><text fill="#000000" font-family="sans-serif" font-size="11" font-weight="bold" lengthAdjust="spacing" textLength="122.3535" x="536.936" y="253.3042">[Network available]</text><polygon fill="#181818" points="662.5952,275.3594,672.5952,279.3594,662.5952,283.3594,666.5952,279.3594" style="stroke:#181818;stroke-width:1;"/><line style="stroke:#181818;stroke-width:1;" x1="517.98" x2="668.5952" y1="279.3594" y2="279.3594"/><text fill="#000000" font-family="sans-serif" font-size="13" lengthAdjust="spacing" textLength="98.1348" x="524.98" y="274.2935">dequeue event</text><polygon fill="#181818" points="867.4487,319.625,877.4487,323.625,867.4487,327.625,871.4487,323.625" style="stroke:#181818;stroke-width:1;"/><line style="stroke:#181818;stroke-width:1;" x1="679.5952" x2="873.4487" y1="323.625" y2="323.625"/><text fill="#000000" font-family="sans-serif" font-size="13" lengthAdjust="spacing" textLength="108.5005" x="686.5952" y="303.4263">send notification</text><text fill="#000000" font-family="sans-serif" font-size="13" lengthAdjust="spacing" textLength="170.8535" x="686.5952" y="318.5591">(HTTP POST / MQTT QoS1)</text><line style="stroke:#000000;stroke-width:1;stroke-dasharray:2.0,2.0;" x1="457.4932" x2="963.71" y1="332.625" y2="332.625"/><text fill="#000000" font-family="sans-serif" font-size="11" font-weight="bold" lengthAdjust="spacing" textLength="99.6929" x="462.4932" y="342.8354">[Network down]</text><polygon fill="#181818" points="662.5952,363.5625,672.5952,367.5625,662.5952,371.5625,666.5952,367.5625" style="stroke:#181818;stroke-width:1;"/><line style="stroke:#181818;stroke-width:1;" x1="517.98" x2="668.5952" y1="367.5625" y2="367.5625"/><text fill="#000000" font-family="sans-serif" font-size="13" lengthAdjust="spacing" textLength="98.1348" x="524.98" y="362.4966">dequeue event</text><polygon fill="#181818" points="528.98,392.6953,518.98,396.6953,528.98,400.6953,524.98,396.6953" style="stroke:#181818;stroke-width:1;"/><line style="stroke:#181818;stroke-width:1;" x1="522.98" x2="673.5952" y1="396.6953" y2="396.6953"/><text fill="#000000" font-family="sans-serif" font-size="13" lengthAdjust="spacing" textLength="132.6152" x="534.98" y="391.6294">re-enqueue for retry</text><path d="M614.5146,411.6953 L691.1387,411.6953 L691.1387,418.8281 L681.1387,428.8281 L614.5146,428.8281 L614.5146,411.6953 " fill="#EEEEEE" style="stroke:#000000;stroke-width:1.5;"/><rect fill="transparent" height="46.2656" style="stroke:#000000;stroke-width:1.5;" width="339.1953" x="614.5146" y="411.6953"/><text fill="#000000" font-family="sans-serif" font-size="13" font-weight="bold" lengthAdjust="spacing" textLength="31.624" x="629.5146" y="424.7622">loop</text><text fill="#000000" font-family="sans-serif" font-size="11" font-weight="bold" lengthAdjust="spacing" textLength="70.4258" x="706.1387" y="423.9058">[every 30s]</text><polygon fill="#181818" points="867.4487,445.9609,877.4487,449.9609,867.4487,453.9609,871.4487,449.9609" style="stroke:#181818;stroke-width:1;"/><line style="stroke:#181818;stroke-width:1;" x1="684.5952" x2="873.4487" y1="449.9609" y2="449.9609"/><text fill="#000000" font-family="sans-serif" font-size="13" lengthAdjust="spacing" textLength="108.7163" x="691.5952" y="444.895">retry notification</text><polygon fill="#181818" points="993.7417,489.0938,1003.7417,493.0938,993.7417,497.0938,997.7417,493.0938" style="stroke:#181818;stroke-width:1;"/><line style="stroke:#181818;stroke-width:1;" x1="322.1128" x2="999.7417" y1="493.0938" y2="493.0938"/><text fill="#000000" font-family="sans-serif" font-size="13" lengthAdjust="spacing" textLength="109.4907" x="329.1128" y="488.0278">annotated frame</text><polygon fill="#181818" points="38.9551,518.2266,28.9551,522.2266,38.9551,526.2266,34.9551,522.2266" style="stroke:#181818;stroke-width:1;"/><line style="stroke:#181818;stroke-width:1;" x1="32.9551" x2="1004.7417" y1="522.2266" y2="522.2266"/><text fill="#000000" font-family="sans-serif" font-size="13" lengthAdjust="spacing" textLength="88.8418" x="44.9551" y="517.1606">display frame</text><!--SRC=[jLF1Jjmm5BpxAvuuWGGggBTAsqk5r4eixBAXfruUzYorrjZ1zWRsxtbn28rXHNjf3aaycPcNDyzE6-jRZdnFSizMsvPzddEyivxEJfMQe7IJ42lWO0vZcNxuEwGSuW5neWADICrUs1REUj3v4_Hs58pe2DQQYw3PqNABBGgxhCkovfrtaCTbo7PjCHWNQ4JUi9yoeXVZ5M9dzM0zWY_OlauNZdUOz3cibPhDwC9seEjcjQ05vzyqcodLvqKdN-j8w0jTus4hxmDxBTb3rHJHl4r5P0EJTROTPxpFJRtJxFVXjdKx-lQJKcOf-CiV6kXWS4m66JeVKuwiDqTx_VxaBqxm3-LjqC4G-iYJClZWBzd9d90VGzmGTsmTtpeeaclYBPMgyKanWw5OgL7uhqNgIVUVQd7lLWzN_1Ay8LyechCDNeButZGolwjLGvzelcmQMeRLsL5ndFHKbuDBU6t8X4V_ttkfPX1nCevXBIEAo75NP2w4jYyGT_JvD1Ne7vCf7bKqHIrv_IK98UpTD9Epqky_BzRSRvV9td_vAkHoQYGYcrh11iup]--></g></svg>